<svg xmlns="http://www.w3.org/2000/svg" viewBox="0 0 640 360"><defs><linearGradient id="a" x2="1" y2="1"><stop stop-color="#eeeaff"/><stop offset="1" stop-color="#e2f5f4"/></linearGradient></defs><rect width="640" height="360" rx="30" fill="url(#a)"/><circle cx="320" cy="178" r="112" fill="#fff" opacity=".8"/><path d="M319 91a83 83 0 1 0 1 166 83 83 0 0 0-1-166Zm0 25a58 58 0 1 1 0 116 58 58 0 0 1 0-116Z" fill="#7769dc"/><circle cx="319" cy="174" r="19" fill="#7769dc"/><path d="M319 91V69m0 210v-22M236 174h-23m213 0h-23m-107-59-16-16m133 150-16-16m0-118 16-16m-133 150 16-16" stroke="#7769dc" stroke-width="8" stroke-linecap="round"/><g fill="#40bba1"><circle cx="180" cy="120" r="13"/><circle cx="460" cy="218" r="11"/><circle cx="220" cy="264" r="9"/></g><g fill="#fff" stroke="#d9d5ff" stroke-width="2"><rect x="74" y="174" width="105" height="48" rx="15"/><rect x="455" y="103" width="108" height="48" rx="15"/></g><g fill="#796cda"><circle cx="96" cy="198" r="5"/><circle cx="112" cy="198" r="5"/><circle cx="128" cy="198" r="5"/><path d="M478 120h60M478 134h43" stroke="#796cda" stroke-width="5" stroke-linecap="round"/></g><text x="320" y="327" text-anchor="middle" fill="#555b94" font-family="Arial,sans-serif" font-size="15" font-weight="700" letter-spacing="2">RESPONSIBLE AI</text></svg>
